<svg width="18" height="17" viewBox="0 0 18 17" fill="none" xmlns="http://www.w3.org/2000/svg">
<path d="M16.3125 17H1.6875C0.75375 17 0 16.2463 0 15.3125V1.8125C0 0.87875 0.75375 0.125 1.6875 0.125H16.3125C17.2463 0.125 18 0.87875 18 1.8125V15.3125C18 16.2463 17.2463 17 16.3125 17ZM1.6875 1.25C1.3725 1.25 1.125 1.4975 1.125 1.8125V15.3125C1.125 15.6275 1.3725 15.875 1.6875 15.875H16.3125C16.6275 15.875 16.875 15.6275 16.875 15.3125V1.8125C16.875 1.4975 16.6275 1.25 16.3125 1.25H1.6875Z" fill="#FDFDFD"/>
</svg>
